<svg id="Слой_1" data-name="Слой 1" xmlns="http://www.w3.org/2000/svg" viewBox="0 0 494 542.65"><defs><style>.cls-1{stroke:white;fill:white;}.cls-2{fill:#4040BF;}.cls-3{stroke:white;fill:white;stroke-width:5px;}.cls-3,.cls-4{stroke:white;stroke-miterlimit:10;}.cls-4{stroke:white;stroke-width:2.86px;}</style></defs><path class="cls-1" d="M1075,325" transform="translate(-666.5 -255.5)"/><path class="cls-2" d="M1072,325c1.18,2.3,2.23,5.19,1,7-2.4,3.54-10.72-1.23-16,3-3.53,2.83-4.4,8.62-3,13,2.16,6.77,9.32,8.82,10,9,6.8,1.83,11.82-2.43,14,0s-1.81,7.27,0,9c2.1,2,10.77-1.39,15-8s2.5-14.12,2-16" transform="translate(-666.5 -255.5)"/><path class="cls-2" d="M1103.5,354.5c-.68,3.26-2.08,6.69-5,9-5.45,4.3-11.53,1-28,2-13,.79-15.74,3.24-17,5-2.55,3.56-1.17,7.31-4,9-3.91,2.34-9.36-3.14-12-1-2.49,2,1.67,7.48-1,12-2.31,3.9-6.86,2.28-13,6-5.13,3.11-11.41,10-10,16,1.52,6.51,11.86,11.27,19,9,8.51-2.7,7.12-13.67,18-18a77,77,0,0,1,12-3c4.12-.83,6.22-1.24,8-1,5.37.72,11.23,4.94,12,10s-3.9,9.2-3,10c1.2,1.06,7.19-8.09,15-8s11.61,9.56,16,8c4.61-1.64,2.61-12.82,8-15,1.85-.75,3.2.38,8,2a67.7,67.7,0,0,0,13,3" transform="translate(-666.5 -255.5)"/><path class="cls-2" d="M1104.5,652.5c-9.13,10.41-17.79-16.68-21-22-4.17-6.9-13.65-22.58-9-38,2.8-9.29,7.85-9,8-16,.25-11.68-13.77-14.77-16-30-1.26-8.61,2.73-11,0-16-4.79-8.82-21-8.93-31-9-20.12-.14-23.32,5.72-34,2-9.41-3.28-18.64-11.91-21-22-1.69-7.22,1.54-9.2,0-20-1.67-11.73-6-13.22-5-19,1.43-8.1,10.72-9.49,27-20,21.61-13.94,19.37-20.61,31-23,13.33-2.74,27.93,3.62,38,8,10.4,4.53,16.16,9.17,24,7,6.45-1.79,8.4-6.55,14-6s7,5.71,13,9c4.24,2.33,11.22,3.95,23,0C1145.5,437.5,1175.5,571.5,1104.5,652.5Z" transform="translate(-666.5 -255.5)"/><path class="cls-2" d="M693.5,393.5c-6.29,11.36-7.28,17.69-6,22,1.9,6.41,6.62,7.16,16,18a101.17,101.17,0,0,1,13,19c7.82,15.07,3.56,18.11,10,26,7.39,9.07,19.18,12.63,27,15,8.14,2.46,7.7.88,13,3,12.79,5.12,12.83,13.34,26,22,11.41,7.5,16.32,4.59,19,10,4.6,9.29-10.1,17.45-10,35,.09,16.27,12.85,28.88,16,32,11,10.82,17.69,8.13,26,18,8,9.54,9,20.69,10,32,2.43,27.83-8.49,32.94-4,54,.87,4.1,5.32,24.94,22,32,6.2,2.63,16.79,4.5,20,0,6.69-9.37-24.92-37.72-18-47,2.49-3.34,7-.18,16-3,14-4.39,27.07-19.49,27-34,0-9.82-6.06-14.55-3-19,3.92-5.71,14.57,1,24-5,6.28-4,8.27-12.37,12-29,4.08-18.23,6.13-27.34,3-32-7.8-11.63-27.23-.1-46-14-10.51-7.78-6.86-13.2-20-23-7.4-5.52-8.12-3.47-30-14-15.67-7.54-19.15-10.44-25-9-9.45,2.32-10.87,12.49-17,12-7.22-.57-5.77-14.72-18-23-3.68-2.49-11.46-4.33-27-8-11.3-2.67-13.44-2.65-15-5-4.92-7.42,3.73-26.59,18-33,10.81-4.86,15.46,1.82,31-1,11.75-2.14,19.5-8.09,35-20,14.18-10.89,22.92-17.61,30-30,6-10.59,5.87-16.55,12-19,9.06-3.62,16.38,6.66,28,3,6.25-2,12.7-7.65,12-12-1.22-7.58-23.8-5.3-28-18-.56-1.7-1.78-5.39,0-8,3.11-4.56,11.48-.16,18-4,7.39-4.36,10.79-18.37,6-26-8.38-13.36-40.31-4.75-43-4-12.75,3.57-12.87,7.37-29,12-12.52,3.59-20.17,5.79-30,4-10.46-1.9-14.39-6.68-29-9a80.72,80.72,0,0,0-13-1S727,333,693.5,393.5Z" transform="translate(-666.5 -255.5)"/><path d="M774.82,312.52" transform="translate(-666.5 -255.5)"/><path d="M913.5,265.5a236.17,236.17,0,1,1-92.25,18.62A235.43,235.43,0,0,1,913.5,265.5m0-10c-136.41,0-247,110.59-247,247s110.59,247,247,247,247-110.59,247-247-110.59-247-247-247Z" transform="translate(-666.5 -255.5)"/><path class="cls-3" d="M928.39,832.19" transform="translate(-666.5 -255.5)"/><path class="cls-4" d="M1045.39,327.43c7.85,10.95-1.15,22-1.15,22l-36.46,36.65,7.72,103.28a1.5,1.5,0,0,1-.55,1.26l-12.31,10.07a1.48,1.48,0,0,1-2.3-.55l-32.49-74.6-26.6,24.78,1.13,29.21a7.89,7.89,0,0,1-2.89,6.43l-3.54,2.9a4.39,4.39,0,0,1-6.76-1.55l-14.84-32.2" transform="translate(-666.5 -255.5)"/><path class="cls-4" d="M1045.39,327.43c-14-7.21-19.17-.85-21.82.85L986,363.77,882.93,353.35a1.47,1.47,0,0,0-1.27.51l-10.39,12a1.49,1.49,0,0,0,.49,2.32l73.73,34.43L920,428.59l-29.17-1.89a7.91,7.91,0,0,0-6.51,2.72l-3,3.46a4.38,4.38,0,0,0,1.37,6.8l31.8,15.68" transform="translate(-666.5 -255.5)"/><ellipse cx="1042.28" cy="330.43" rx="6" ry="5.43" transform="translate(-661.66 420.25) rotate(-36)"/><path d="M906.44,482s0,0,0,0l-.18.11-.39.22-.89.57c-.61.4-1.25.85-1.88,1.28l-1.91,1.41-1.9,1.52c-1.26,1-2.5,2.12-3.75,3.21s-2.46,2.24-3.65,3.44a146.64,146.64,0,0,0-13.54,15.34c-1.09,1.34-2.1,2.74-3.11,4.15s-2.06,2.79-3,4.23c-1.91,2.91-3.93,5.75-5.7,8.77l-2.75,4.48-2.58,4.59c-.84,1.54-1.74,3.05-2.54,4.62l-2.41,4.71a312,312,0,0,0-16.37,39.31c-1.11,3.39-2.32,6.76-3.35,10.19l-3,10.3c-1,3.44-1.82,6.94-2.74,10.41l-1.35,5.22-1.18,5.26A573.19,573.19,0,0,0,815.74,711c-2.13,28.93-2.55,58-1.78,87.13a871.21,871.21,0,0,1-3.72-87.36,582.38,582.38,0,0,1,7.15-87.59l.87-5.45,1-5.43c.71-3.61,1.33-7.25,2.14-10.86l2.46-10.81c.84-3.6,1.87-7.16,2.79-10.75a327.25,327.25,0,0,1,14.56-42.23l2.23-5.16c.75-1.72,1.61-3.4,2.41-5.1l2.45-5.09,2.65-5c1.7-3.37,3.7-6.61,5.58-9.9,1-1.64,2-3.23,3-4.85s2-3.22,3.15-4.78a165.28,165.28,0,0,1,14.2-18.3c1.29-1.47,2.69-2.87,4-4.31s2.8-2.8,4.29-4.16l2.24-2,2.36-2c.83-.65,1.64-1.3,2.51-2s1.61-1.21,3.08-2.12Z" transform="translate(-666.5 -255.5)"/></svg>